<?xml version="1.0" encoding="iso-8859-1"?>
<!-- Uploaded to: SVG Repo, www.svgrepo.com, Generator: SVG Repo Mixer Tools -->
<svg height="800px" width="800px" version="1.1" id="Layer_1" xmlns="http://www.w3.org/2000/svg" xmlns:xlink="http://www.w3.org/1999/xlink" 
	 viewBox="0 0 474.668 474.668" xml:space="preserve">
<g transform="translate(0 -1004.36)" shape-rendering="auto" image-rendering="auto" color-rendering="auto" color-interpolation="sRGB">
	<path style="fill:#3B322E;" d="M178.357,1004.36c-75.045,0-135.687,60.804-135.687,136v192c0,4.418,3.582,8,8,8h308.583
		c2.652,0.004,5.133-1.307,6.625-3.5c0,0,21.701-31.828,32.105-48.688c7.635-12.372,14.403-24.99,21.417-37.165
		c6.154-10.685,18.314-22.215,28.604-34.793c10.29-12.577,19.394-27.793,14.75-45.166c-1.712-6.406-6.517-10.466-11.292-12.938
		c-4.774-2.473-9.9-3.646-14.875-3.646c-18.932,0.107-31.651,15.005-43.001,26.521c-5.675,5.758-11.095,10.966-16,14.021
		c-3.817,2.378-6.955,2.447-10.313,2.333v-56.979c0-75.196-60.642-136-135.687-136h-53.209L178.357,1004.36z"/>
	<path style="fill:#EA6153;" d="M178.357,1020.36h53.209c66.437,0,119.687,53.372,119.687,120v63.604
		c0.005,2.366,1.058,4.609,2.875,6.125c1.484,1.244,3.465,2.776,6.563,3.5c9.334,2.18,18.208-0.587,25.333-5.021
		c7.13-4.441,13.145-10.456,18.938-16.333c11.579-11.748,21.984-21.724,31.646-21.771c2.118,0.003,5.295,0.715,7.5,1.854
		c2.21,1.145,3.065,2.414,3.187,2.874c2.701,10.104-2.385,19.532-11.666,30.876c-9.281,11.343-22.07,23.009-30.105,36.958
		c-7.175,12.46-13.852,24.931-21.146,36.75c-9.177,14.87-26.672,40.516-29.438,44.583H58.67v-184c0-66.628,53.25-120,119.687-120
		L178.357,1020.36z"/>
	<g>
		<path style="fill:#3B322E;" d="M364.399,1197.818l0.107,0.15c0,0-0.107,0.107-0.149,0c0.821,0.191,0.661,0.298,0.107-0.191
			L364.399,1197.818z"/>
		<path style="fill:#3B322E;" d="M50.67,1324.34c-22.021,0-40,17.999-40,40.021v74.667c0,22.021,17.979,40,40,40h309.333
			c22.021,0,40-17.979,40-40v-74.667c0-22.021-17.979-40.021-40-40.021H50.67L50.67,1324.34z"/>
	</g>
	<path style="fill:#D3D4D6;" d="M50.67,1340.34h309.333c13.435,0,24,10.586,24,24.021v74.667c0,13.435-10.565,24-24,24H50.67
		c-13.435,0-24-10.565-24-24v-74.667C26.67,1350.926,37.235,1340.34,50.67,1340.34L50.67,1340.34z"/>
	<g>
		<g>
			<path style="fill:#3B322E;" d="M71.878,1367.049c-4.418,0.069-7.944,3.706-7.875,8.125c0,0,0,0,0,0v53.021
				c-0.062,4.418,3.469,8.051,7.887,8.113c4.418,0.063,8.051-3.469,8.113-7.888c0.001-0.074,0.001-0.15,0-0.225v-53.021
				c0.069-4.418-3.456-8.056-7.875-8.125C72.045,1367.047,71.962,1367.047,71.878,1367.049L71.878,1367.049z"/>
			<path style="fill:#3B322E;" d="M157.211,1367.049c-4.418,0.069-7.944,3.706-7.875,8.125h0v53.021
				c-0.062,4.418,3.469,8.051,7.887,8.113s8.051-3.469,8.113-7.887c0.001-0.075,0.001-0.151,0-0.227v-53.021
				c0.069-4.418-3.456-8.056-7.875-8.125C157.378,1367.047,157.295,1367.047,157.211,1367.049z"/>
			<path style="fill:#3B322E;" d="M243.087,1366.756c-4.41,0.069-7.933,3.694-7.875,8.104v53.333
				c-0.062,4.418,3.469,8.051,7.887,8.113s8.051-3.469,8.113-7.887c0.001-0.076,0.001-0.151,0-0.227v-53.333
				c0.058-4.418-3.477-8.047-7.896-8.104C243.239,1366.755,243.163,1366.755,243.087,1366.756z"/>
			<path style="fill:#3B322E;" d="M327.878,1367.049c-4.418,0.069-7.944,3.706-7.875,8.125l0,0v53.021
				c-0.062,4.418,3.469,8.051,7.887,8.113c4.418,0.063,8.051-3.469,8.113-7.887c0.001-0.075,0.001-0.151,0-0.227v-53.021
				c0.069-4.418-3.456-8.056-7.875-8.125C328.045,1367.047,327.962,1367.047,327.878,1367.049z"/>
			<path style="fill:#3B322E;" d="M210.545,1196.382c-4.418,0.069-7.944,3.706-7.875,8.125l0,0v63.688
				c-0.062,4.418,3.469,8.051,7.887,8.113s8.051-3.469,8.113-7.887c0.001-0.075,0.001-0.151,0-0.227v-63.688
				c0.069-4.418-3.456-8.056-7.875-8.125C210.712,1196.381,210.628,1196.381,210.545,1196.382z"/>
			<path style="fill:#3B322E;" d="M178.711,1100.381c-4.419,0.004-7.998,3.589-7.994,8.008c0.002,2.705,1.372,5.226,3.639,6.701
				l31.875,21.25c2.687,1.791,6.188,1.791,8.875,0l31.875-21.25c3.711-2.398,4.775-7.352,2.376-11.063s-7.351-4.775-11.062-2.376
				c-0.063,0.041-0.126,0.083-0.189,0.126l-27.438,18.292l-27.437-18.292C181.901,1100.866,180.325,1100.38,178.711,1100.381z"/>
			<path style="fill:#3B322E;" d="M210.566,1228.36c-1.543,0.017-3.048,0.48-4.334,1.333l-31.875,21.25
				c-3.71,2.4-4.773,7.353-2.373,11.063c2.4,3.711,7.353,4.773,11.063,2.374c0.063-0.04,0.124-0.082,0.186-0.124l27.437-18.292
				l27.438,18.292c3.636,2.51,8.619,1.599,11.13-2.038c2.511-3.635,1.599-8.618-2.037-11.129c-0.072-0.049-0.145-0.099-0.218-0.146
				l-31.875-21.25C213.762,1228.801,212.18,1228.337,210.566,1228.36L210.566,1228.36z"/>
			<path style="fill:#3B322E;" d="M232.149,1175.027c-4.418-0.063-8.051,3.469-8.113,7.887c-0.062,4.419,3.469,8.051,7.887,8.113
				c0.075,0.001,0.151,0.001,0.226,0h63.708c4.418,0.063,8.051-3.469,8.113-7.887c0.062-4.419-3.469-8.051-7.887-8.113
				c-0.075-0.001-0.151-0.001-0.226,0H232.149z"/>
			<path style="fill:#3B322E;" d="M285.087,1143.048c-2.635,0.07-5.066,1.434-6.5,3.646l-21.25,31.874
				c-1.791,2.688-1.791,6.188,0,8.876l21.25,31.874c2.401,3.71,7.354,4.771,11.064,2.371c3.71-2.401,4.771-7.354,2.371-11.064
				c-0.04-0.061-0.08-0.122-0.121-0.182l-18.292-27.437l18.292-27.438c2.498-3.645,1.568-8.625-2.077-11.122
				C288.431,1143.492,286.773,1143.003,285.087,1143.048L285.087,1143.048z"/>
			<path style="fill:#3B322E;" d="M136.024,1143.048c-4.419-0.002-8.002,3.579-8.004,7.997c-0.001,1.615,0.487,3.191,1.399,4.523
				l18.292,27.563l-18.271,27.312c-2.57,3.594-1.74,8.591,1.854,11.161c3.594,2.57,8.592,1.741,11.162-1.854
				c0.096-0.134,0.188-0.271,0.275-0.411l21.25-31.729c1.791-2.687,1.791-6.188,0-8.874l-21.25-32.021
				c-1.474-2.286-4.008-3.667-6.729-3.666H136.024z"/>
			<path style="fill:#3B322E;" d="M210.545,1089.715c-4.41,0.069-7.932,3.693-7.875,8.104v63.709
				c-0.062,4.418,3.469,8.051,7.887,8.113s8.051-3.469,8.113-7.887c0.001-0.076,0.001-0.151,0-0.227v-63.709
				c0.057-4.419-3.478-8.047-7.896-8.104C210.697,1089.714,210.621,1089.714,210.545,1089.715z"/>
			<path style="fill:#3B322E;" d="M125.482,1175.006c-4.418-0.063-8.051,3.469-8.113,7.887c-0.062,4.419,3.469,8.051,7.887,8.113
				c0.075,0.001,0.151,0.001,0.226,0h63.708c4.418,0.063,8.051-3.469,8.113-7.887c0.062-4.419-3.469-8.051-7.887-8.113
				c-0.075-0.001-0.151-0.001-0.226,0H125.482z"/>
		</g>
		<path style="fill:#3B322E;" d="M210.67,1153.673c-16.106,0-29.333,13.227-29.333,29.333c0,16.106,13.228,29.333,29.333,29.334
			c16.106,0,29.333-13.228,29.333-29.333C240.003,1166.9,226.775,1153.674,210.67,1153.673L210.67,1153.673z"/>
	</g>
	<path style="fill:#FCD116;" d="M210.67,1169.673c7.458,0,13.333,5.873,13.333,13.333c0,7.459-5.875,13.334-13.333,13.334
		s-13.333-5.874-13.333-13.333C197.336,1175.547,203.212,1169.674,210.67,1169.673L210.67,1169.673z"/>
	<g>
		<path style="fill:#C75A4E;" d="M215.566,1020.37c66.437,0,119.687,53.372,119.687,120v63.605c0.005,2.366,1.058,4.609,2.875,6.125
			c1.484,1.243,3.465,2.775,6.563,3.5c5.169,1.207,10.164,0.811,14.833-0.458c-2.364-0.799-4.133-1.983-5.396-3.042
			c-1.817-1.516-2.869-3.759-2.875-6.125v-63.604c0-66.628-53.25-120-119.687-120L215.566,1020.37L215.566,1020.37z"/>
		<path style="fill:#C75A4E;" d="M436.608,1170.473c-2.619,0-5.307,0.864-8.042,2.167c1.767,1.046,2.613,2.147,2.729,2.562
			c2.701,10.104-2.385,19.531-11.666,30.875c-9.281,11.343-22.07,23.01-30.105,36.958c-7.175,12.46-13.852,24.931-21.146,36.75
			c-9.177,14.87-26.672,40.516-29.438,44.583h16c2.766-4.068,20.261-29.714,29.438-44.583c7.294-11.819,13.97-24.29,21.146-36.75
			c8.034-13.949,20.823-25.616,30.105-36.958c9.281-11.344,14.367-20.771,11.666-30.874c-0.128-0.459-0.981-1.73-3.187-2.874
			C441.903,1171.189,438.726,1170.477,436.608,1170.473L436.608,1170.473z"/>
	</g>
	<path style="fill:#B5B6B7;" d="M344.003,1340.348c13.435,0,24,10.587,24,24.021v74.667c0,13.435-10.565,24-24,24h16
		c13.435,0,24-10.565,24-24v-74.667c0-13.435-10.565-24.021-24-24.021H344.003z"/>
</g>
</svg>